<svg width="36" height="36" viewBox="0 0 36 36" fill="none" xmlns="http://www.w3.org/2000/svg">
  <rect width="36" height="36" rx="6" fill="#d4a336" fill-opacity="0.1"/>
  <rect x="0.5" y="0.5" width="35" height="35" rx="5.5" stroke="#d4a336" stroke-opacity="0.2"/>
  <g transform="translate(8, 8)">
    <path d="M2 14 L8 8 L2 2" stroke="#b8860b" stroke-width="2" stroke-linecap="round" stroke-linejoin="round" fill="none"/>
    <path d="M10 16 L18 16" stroke="#b8860b" stroke-width="2" stroke-linecap="round" fill="none"/>
  </g>
  <g transform="translate(24, 0) scale(0.5)">
    <path d="M11.017 2.814a1 1 0 0 1 1.966 0l1.051 5.558a2 2 0 0 0 1.594 1.594l5.558 1.051a1 1 0 0 1 0 1.966l-5.558 1.051a2 2 0 0 0-1.594 1.594l-1.051 5.558a1 1 0 0 1-1.966 0l-1.051-5.558a2 2 0 0 0-1.594-1.594l-5.558-1.051a1 1 0 0 1 0-1.966l5.558-1.051a2 2 0 0 0 1.594-1.594z" fill="#4dd4c4"/>
    <path d="M20 2v4" stroke="#4dd4c4" stroke-width="2" stroke-linecap="round"/>
    <path d="M22 4h-4" stroke="#4dd4c4" stroke-width="2" stroke-linecap="round"/>
  </g>
</svg>
